<svg width="246" height="32" viewBox="0 0 246 32" fill="none" xmlns="http://www.w3.org/2000/svg">
<path d="M25.1925 19.7819H9.53359V15.8436H29.7253C29.1955 14.1728 27.4883 12.6214 24.486 12.6214H9.82792C6.47245 12.6214 4.52981 13.8745 4.52981 16.6193V19.5432C4.52981 21.93 6.53132 23.3025 9.47472 23.3025H25.3102V27.4794H4C4.52981 29.7469 6.23698 30.9403 9.29811 30.9403H25.2513C28.6068 30.9403 30.2551 29.6276 30.2551 26.823V23.8992C30.2551 21.3333 28.3125 19.9609 25.1925 19.7819Z" fill="white"/>
<path fill-rule="evenodd" clip-rule="evenodd" d="M37.8491 12.6811H57.1578C61.1608 12.6811 63.6333 14.3519 63.6921 17.3354V19.3642C63.6921 22.5864 61.514 23.9589 57.5699 23.9589H43.3238V31H37.8491V12.6811ZM56.5691 20.5576C58.6884 20.5576 58.9238 19.8416 58.9238 18.5288H58.9827V17.7531C58.9827 16.5 58.6884 15.784 56.3336 15.784H43.3827L43.3238 20.5576H56.5691Z" fill="white"/>
<path d="M79.5863 11.9053L76.2897 16.0226L81.8822 23.8395H70.2263L67.3418 26.9424H84.178L87.0626 31H93.538L79.5863 11.9053Z" fill="white"/>
<path d="M104.016 15.8436H124.503C123.973 13.6955 121.912 12.6214 118.969 12.6214H103.663C101.014 12.6214 98.4829 13.6955 98.4829 16.6193V26.8827C98.4829 29.8066 101.014 30.8807 103.663 30.8807H119.146C122.678 30.8807 123.914 29.8663 124.503 27.4198H104.016V15.8436Z" fill="white"/>
<path d="M137.512 27.5391V21.9301H148.521V18.8272H131.979V31H156.409V27.5391H137.512Z" fill="white"/>
<rect x="132.567" y="12.6811" width="24.6657" height="3.22222" fill="white"/>
<path fill-rule="evenodd" clip-rule="evenodd" d="M163.826 12.6811H172.421L178.661 17.2161C177.131 18.1111 175.423 19.1852 173.952 20.1996L163.826 12.6811ZM181.016 24.9131C182.283 23.9481 183.592 22.9516 184.901 22.0494L196.851 30.9403H188.198L180.545 25.2716C180.701 25.1528 180.858 25.0332 181.016 24.9131Z" fill="white"/>
<path d="M238 2C190.906 4.74486 169.125 25.1523 164.239 29.9856L163.238 30.9403H171.95C195.497 7.01234 229.346 2.77572 238 2Z" fill="white"/>
</svg>
